<svg width="36" height="36" viewBox="0 0 36 36" fill="none" xmlns="http://www.w3.org/2000/svg">
<path fill-rule="evenodd" clip-rule="evenodd" d="M34.8851 24.2757C35.1127 23.8178 35.4145 23.0048 35.5998 22.0735V22.0838C35.7957 21.1577 35.8963 20.1183 35.9069 19.2591C36.0604 17.7464 36.0234 16.2028 35.801 14.6695C35.5681 13.1413 35.1763 11.6183 34.6045 10.1468C33.2492 7.06991 30.8297 4.50756 27.8702 2.76846C24.9108 1.01906 21.3954 0.0671872 17.7371 0.000298623C17.3718 -0.00484666 16.9747 0.0568967 16.6465 0.154657C16.3182 0.257563 16.0535 0.39134 15.9529 0.525117C15.8471 0.658894 15.9053 0.787526 16.1965 0.880141C16.3394 0.926449 16.5459 0.962466 16.8212 0.998483C17.0138 1.03088 17.2401 1.05069 17.5037 1.07376C17.6169 1.08366 17.7369 1.09417 17.8642 1.10653C19.2671 1.27118 20.6436 1.54903 21.9831 1.94007C22.8511 2.19784 23.7012 2.50788 24.529 2.86736C23.0343 2.23496 21.5057 1.8612 19.8918 1.64679C20.1451 1.68649 20.3952 1.7415 20.6397 1.79529L20.6398 1.7953C20.7122 1.81122 20.7841 1.82703 20.8554 1.84231C20.9603 1.8627 21.0634 1.8842 21.1649 1.90535L21.1651 1.9054L21.1651 1.90541C21.3588 1.94579 21.5462 1.98486 21.7272 2.0123C20.2138 1.78966 18.7109 1.70921 17.2289 1.80115C15.7359 1.88347 14.2588 2.13559 12.8399 2.56779C13.6447 2.43402 14.46 2.3414 15.2753 2.28995C14.2058 2.41343 13.1417 2.63468 12.104 2.95369C10.9022 3.32415 9.73222 3.83353 8.64161 4.46126C9.91752 3.57112 11.3205 2.84049 12.8082 2.31567C11.8076 2.27451 11.0823 2.6141 10.5105 3.02058C10.2645 3.18859 10.0454 3.37012 9.8318 3.54706L9.8318 3.54707L9.83179 3.54707C9.53521 3.79279 9.24933 4.02966 8.91691 4.20914C7.33394 5.04267 5.8992 6.1592 4.72389 7.45066C3.53798 8.73698 2.6062 10.1828 1.91265 11.6441C2.47384 10.4761 3.16209 9.375 3.9774 8.36652C3.37386 9.12288 2.89208 9.88438 2.50031 10.687C2.42656 10.8304 2.36084 10.9815 2.29616 11.1303L2.29615 11.1303L2.26736 11.1964C1.90206 11.8653 1.57382 12.5548 1.29852 13.2648C1.0444 13.8874 0.843217 14.5306 0.657919 15.1737C0.488504 15.822 0.329681 16.4755 0.234384 17.1341C0.0173212 18.4564 -0.0515075 19.7942 0.0384944 21.132C0.123202 22.4697 0.345559 23.8024 0.732038 25.099C0.901453 25.5723 1.28793 26.3544 1.83324 27.1416C2.37325 27.934 3.0615 28.7315 3.68092 29.349C4.68153 30.5272 5.83567 31.5923 7.11158 32.5236C8.39279 33.4395 9.78517 34.2524 11.2623 34.9007C14.4759 36.151 18.06 36.3054 21.4219 35.513C24.7943 34.7258 27.9761 33.0021 30.6127 30.5427C30.8721 30.2957 31.1103 29.9818 31.2744 29.6886C31.428 29.3901 31.518 29.1174 31.4915 28.9528C31.4703 28.8139 31.3803 28.7573 31.2003 28.8139C31.645 28.4125 32.0739 27.9958 32.4762 27.5533C33.3921 26.5499 34.2127 25.454 34.8851 24.2757ZM25.4165 3.27583C25.5605 3.3476 25.7043 3.42199 25.8479 3.49909C25.8479 3.4888 25.8426 3.47851 25.8373 3.47336C26.7479 3.94158 27.6214 4.48698 28.4526 5.08898C28.8126 5.27935 29.1673 5.47488 29.5115 5.67554C29.2785 5.57264 29.0297 5.45429 28.765 5.32052C29.7868 6.09231 30.7344 6.95672 31.5815 7.91374C33.2015 9.72488 34.4563 11.8705 35.1922 14.1755C35.2663 13.1722 34.9486 12.421 34.5357 11.819C34.3715 11.5712 34.194 11.3457 34.0206 11.1253C33.7692 10.8058 33.5262 10.497 33.3445 10.1468C32.5186 8.51059 31.375 7.00302 30.0303 5.75787C28.7799 4.57642 27.3621 3.62094 25.9207 2.87026C26.8149 3.33782 27.6654 3.88304 28.4685 4.48698C27.8755 4.04963 27.272 3.68432 26.642 3.35502C25.7949 2.91767 24.8949 2.5575 23.8837 2.2848C24.0642 2.42802 24.337 2.55878 24.6236 2.69615C24.7489 2.75619 24.8768 2.81749 25.0008 2.88165C25.4084 3.07718 25.7579 3.29842 25.8426 3.4888C25.7013 3.41632 25.5593 3.34533 25.4165 3.27583ZM3.73386 24.0185C3.31562 23.2518 2.9715 22.4389 2.70679 21.6002V21.5899C2.49502 20.8284 2.45796 20.0412 2.5056 19.2797C2.49766 19.2154 2.49105 19.1523 2.48443 19.0893L2.48443 19.0893L2.48442 19.0893C2.47781 19.0262 2.47119 18.9632 2.46325 18.8989C2.40501 19.1459 2.3256 19.2797 2.23031 18.8114C2.00795 17.8184 2.06618 16.7379 2.24619 15.6625C2.36689 14.9345 2.53759 14.2088 2.71358 13.4606C2.80004 13.0931 2.88778 12.7201 2.9715 12.3387C3.10385 11.7315 3.50092 10.9803 4.02505 10.2394C4.08858 9.99243 4.19446 9.90496 4.31623 9.84322L4.37712 9.76221L4.37712 9.7622C4.47358 9.63363 4.5713 9.50338 4.67624 9.38014C4.6233 9.45218 4.573 9.52549 4.52271 9.59881C4.47241 9.67214 4.42212 9.74546 4.36917 9.81749C4.49623 9.76089 4.63918 9.694 4.79271 9.48305C3.89799 10.8414 3.22562 12.3644 2.83914 13.9697C2.44737 15.5699 2.3256 17.2473 2.46854 18.9041C2.49859 18.7979 2.52723 18.6711 2.55301 18.557L2.55301 18.557C2.57719 18.45 2.59884 18.3542 2.61678 18.2969C2.56913 18.6211 2.52149 18.9555 2.5056 19.2848C2.62208 20.355 2.84443 21.4201 3.17797 22.4543C3.1462 22.2742 3.11974 22.0993 3.11444 21.9346C3.27856 22.408 3.48504 22.8865 3.7021 23.3444C3.89887 23.7599 4.11303 24.1542 4.30836 24.5138C4.41785 24.7154 4.52143 24.9061 4.61271 25.0835C4.49861 24.9687 4.38138 24.8538 4.26584 24.7413C4.23236 24.7078 4.19783 24.6744 4.1627 24.641L4.26584 24.7413C4.45431 24.9303 4.6093 25.1254 4.64977 25.3614C4.57565 25.3048 4.50153 25.2276 4.42741 25.1453C4.22623 24.852 4.03564 24.5484 3.85563 24.2397C3.8874 24.3169 3.92446 24.3941 3.96152 24.4712C3.88965 24.3447 3.82922 24.2181 3.76729 24.0883L3.73386 24.0185ZM4.67624 9.38014C4.72733 9.31453 4.77716 9.24831 4.82682 9.18232C4.92124 9.05683 5.01504 8.93218 5.11566 8.81416C5.27448 8.63408 5.43331 8.45914 5.60802 8.29963C5.55979 8.35459 5.51155 8.41006 5.46315 8.46572L5.4631 8.46578L5.46307 8.46581C5.35744 8.58728 5.25103 8.70965 5.14213 8.8296C5.06537 8.92221 4.98728 9.01353 4.9092 9.10485C4.8311 9.19619 4.75301 9.28752 4.67624 9.38014ZM10.9878 33.81C10.6952 33.7721 10.3953 33.7332 10.0869 33.6659L10.0816 33.6556C9.35104 33.5115 8.57808 33.1976 7.89513 32.4361C10.1028 33.563 12.5593 34.2215 15.0265 34.3965C17.4989 34.5714 19.9818 34.2987 22.3325 33.6041C22.3219 33.6041 22.306 33.599 22.3007 33.5938C23.2219 33.3417 24.0849 33.0073 24.9002 32.6214C25.1808 32.5185 25.4614 32.4053 25.7367 32.2869C24.6355 32.8169 23.4972 33.2645 22.3272 33.6093C22.5231 33.6864 22.936 33.6093 23.3649 33.4652C23.4973 33.4264 23.6307 33.383 23.7615 33.3404C24.0649 33.2416 24.3548 33.1472 24.5878 33.1256C23.6719 33.6196 22.7719 33.9797 21.856 34.2524C20.9401 34.52 19.9924 34.7001 18.9601 34.7824C20.1619 34.6898 21.3531 34.4788 22.5125 34.1598C21.0036 34.5817 19.373 34.8493 17.7053 34.8699C15.8418 34.9059 13.9358 34.6229 12.1517 34.0312C11.7754 33.9122 11.3884 33.862 10.9878 33.81H10.9878ZM4.54388 27.5841C3.77093 26.6477 3.1462 25.6135 2.57972 24.5947L2.58502 24.5999C3.4321 26.0766 4.50682 27.3835 5.72449 28.4949C6.21156 28.9939 6.71981 29.4725 7.26511 29.9304C6.22745 29.349 5.31684 28.5154 4.54388 27.5841ZM18.4056 3.93396C18.6915 3.95242 19.056 3.97595 19.4842 4.03934L19.4895 4.01362C19.5497 4.02231 19.626 4.03114 19.7168 4.04165C20.4317 4.12442 22.0486 4.3116 23.8572 5.36168C23.9118 5.39338 23.9665 5.42558 24.0213 5.45822C25.8423 6.33409 27.4433 7.5949 28.7186 9.13514C29.797 10.0393 30.726 11.2163 31.3909 12.5548C30.9621 11.5412 30.4115 10.5687 29.7497 9.66828C29.0879 8.773 28.3044 7.96004 27.4361 7.23971C27.2667 7.10078 27.0973 6.96701 26.9226 6.83837C27.3779 6.65314 26.6473 5.93795 25.4508 5.29479C24.8578 4.97064 24.1537 4.67221 23.4602 4.42524C23.0043 4.26292 22.5554 4.12727 22.1464 4.00369C21.933 3.93923 21.7306 3.87806 21.5436 3.8181H21.9301L21.9033 3.81124L21.9301 3.81295C21.8751 3.80047 21.8201 3.78862 21.7649 3.77716C21.6671 3.75374 21.5687 3.73135 21.4714 3.70919L21.3848 3.68946C21.3742 3.68175 21.3623 3.67531 21.3504 3.66888C21.3385 3.66245 21.3266 3.65602 21.316 3.6483C21.4748 3.64316 21.6654 3.65345 21.8772 3.66888C22.089 3.67917 22.3166 3.69975 22.5284 3.72548L22.5656 3.72901C22.9857 3.76892 23.3765 3.80604 23.5925 3.74606L23.5925 3.74604C23.4549 3.61227 23.3119 3.47336 23.1637 3.34473C23.8784 3.59685 24.5825 3.89013 25.2602 4.23486C27.1661 5.19703 28.8814 6.51422 30.2474 8.08868L30.2526 8.07324C31.6186 9.6477 32.6351 11.4846 33.1804 13.3883C32.8943 12.9082 32.6313 12.3796 32.3617 11.838C32.0825 11.2769 31.7963 10.7017 31.4703 10.1519C30.8297 9.07657 30.0409 8.09897 29.1515 7.61531C30.4168 8.8862 31.4756 10.3577 32.2592 11.9785C33.048 13.5941 33.5721 15.3538 33.7627 17.1804C33.7488 17.4874 33.7389 17.7984 33.7287 18.119C33.7078 18.7761 33.6856 19.4739 33.6251 20.2624C33.5774 19.9383 33.5351 19.5472 33.5086 19.1304C33.4947 18.9921 33.4825 18.851 33.4702 18.7081L33.4702 18.7077C33.4449 18.4147 33.4189 18.114 33.3762 17.8133C33.3233 16.635 33.1327 15.4619 32.7886 14.3505C33.2492 16.0999 33.2598 17.911 32.8945 19.47C32.8892 18.2763 32.7992 17.0775 32.5503 15.9095C32.3015 14.7415 31.9309 13.5941 31.3909 12.5445C31.8886 13.7382 32.2115 14.9885 32.365 16.2542C32.7674 18.3587 32.6933 20.5917 32.0527 22.7219C32.0721 22.6748 32.0894 22.6278 32.1073 22.5795C32.1187 22.5487 32.1303 22.5173 32.1427 22.4852C32.1078 22.6057 32.0644 22.7207 32.0208 22.8362L32.0208 22.8362L32.0208 22.8363C32.0049 22.8786 31.9889 22.9209 31.9733 22.9637C31.7086 23.7921 31.3591 24.605 30.9303 25.3768C30.5321 26.0592 29.9887 26.6307 29.4027 27.1362C30.0911 26.302 30.7112 25.4068 31.2268 24.4507C31.0362 24.7234 30.8244 24.9549 30.6074 25.135C32.0792 22.4543 32.7303 19.3363 32.365 16.2645C31.902 13.8443 30.7826 11.6094 29.2172 9.77427C30.9095 12.0781 31.9091 14.9223 31.9091 18C31.9091 25.6818 25.6818 31.9091 18 31.9091C12.5686 31.9091 7.86434 28.7959 5.57422 24.2567C5.30789 24.0384 5.04547 23.8103 4.81918 23.5605C4.84147 23.5542 4.86701 23.55 4.89339 23.5457C4.9735 23.5326 5.06131 23.5183 5.08919 23.437C4.80859 23.0203 4.58624 22.5778 4.36917 22.1301C4.17858 21.6722 3.98799 21.2091 3.86093 20.7306C3.83349 20.6882 3.80635 20.6458 3.77929 20.6035C3.69149 20.4663 3.60459 20.3305 3.51151 20.2007C3.37915 20.0309 3.2468 19.8662 3.10385 19.7119C3.19915 19.5266 3.26268 19.3002 3.31033 19.0584C3.32621 19.2025 3.32621 19.3465 3.26797 19.4752C3.39503 19.47 3.53268 19.4752 3.64386 19.5163C3.53798 19.1613 3.45327 18.8012 3.38974 18.4358C3.41402 18.1864 3.42694 17.9259 3.4404 17.6544L3.4404 17.6544L3.4404 17.6544C3.44749 17.5115 3.45473 17.3655 3.46386 17.2164C3.50621 16.2131 3.66504 15.1068 4.02505 14.2579L4.05152 14.2682C4.3427 13.3883 4.73977 12.5239 5.25331 11.6955C5.27448 11.5257 5.27448 11.3508 5.2639 11.1707C5.41366 11.0935 5.53343 10.9939 5.63238 10.9117L5.63238 10.9117L5.6324 10.9117C5.70483 10.8515 5.76609 10.8006 5.81979 10.7745C5.96813 10.5203 6.10568 10.2752 6.23986 10.0361C6.46963 9.62669 6.68953 9.23483 6.93687 8.84503C6.98231 8.83084 7.04963 8.8239 7.1271 8.81591C7.30237 8.79783 7.52958 8.7744 7.67277 8.64951C7.73998 8.58057 7.81113 8.5161 7.88392 8.45386C10.1478 6.05564 13.2552 4.46222 16.7316 4.14796C16.7468 4.08316 16.7549 4.01494 16.763 3.94673C16.943 4.01362 17.1547 4.02391 17.3612 4.01362C17.5677 4.00333 17.7742 3.99303 17.9277 4.04449C17.8695 3.99818 17.8377 3.94673 17.8483 3.87469C17.9687 3.90575 18.1577 3.91795 18.4056 3.93396ZM33.2174 23.3393C33.821 21.2966 33.9798 19.1922 33.7627 17.1804C33.7707 17.044 33.7773 16.9089 33.7839 16.7738C33.7905 16.6388 33.7971 16.5037 33.8051 16.3674C33.8686 16.5938 33.9163 16.8254 33.9586 17.062C34.001 17.6486 34.0168 18.2455 34.001 18.8372C33.9745 19.8817 33.8421 20.9261 33.6145 21.9552C33.4927 22.4234 33.3604 22.8865 33.2174 23.3393ZM33.2174 23.3393C33.192 23.4174 33.1684 23.4971 33.1447 23.5768L33.1446 23.5772C33.109 23.697 33.0734 23.8168 33.0321 23.931C33.0892 23.7805 33.1337 23.627 33.1777 23.475L33.1778 23.4748C33.1909 23.4294 33.204 23.3842 33.2174 23.3393ZM21.7649 3.77716C21.6606 3.75555 21.5556 3.73537 21.4484 3.71519C21.584 3.77376 21.7386 3.79992 21.9033 3.81124C21.8574 3.79959 21.8112 3.78826 21.7649 3.77716ZM29.3717 27.1674C29.24 27.2801 29.1079 27.3884 28.9662 27.4967C28.9344 27.5378 28.9026 27.579 28.8656 27.615C28.9556 27.5584 29.0509 27.5018 29.1409 27.4504C28.0238 28.7212 26.7214 29.8223 25.2708 30.6867C23.8255 31.5563 22.2319 32.1737 20.6066 32.5236C20.8713 32.4773 21.0142 32.5287 21.1519 32.5802C21.0619 32.5931 20.9719 32.6111 20.8819 32.6291C20.7919 32.6471 20.7019 32.6651 20.6119 32.678C20.4901 32.6908 20.3684 32.7024 20.2467 32.714C20.1249 32.7255 20.0031 32.7371 19.8813 32.75C19.6379 32.7654 19.3998 32.786 19.1616 32.8066L19.1612 32.8066C19.3995 32.8117 19.643 32.8014 19.8866 32.7809C20.0647 32.762 20.24 32.735 20.4166 32.7077L20.417 32.7076C20.4817 32.6976 20.5466 32.6876 20.6119 32.678C20.7314 32.6657 20.849 32.6481 20.967 32.6303L20.9671 32.6303L20.9671 32.6303C21.0477 32.6182 21.1285 32.6061 21.2101 32.5956C21.3372 32.6317 21.4801 32.6471 21.7025 32.5133C22.6131 32.3487 23.4443 32.0914 23.9843 31.7415C24.3083 31.5386 24.6292 31.3434 24.9454 31.151L24.9454 31.151L24.9455 31.1509L24.9455 31.1509C25.6316 30.7335 26.2957 30.3294 26.9226 29.8892C27.8332 29.2512 28.6644 28.5309 29.2362 27.6716C29.5115 27.2754 29.3579 27.3114 29.1356 27.4504C29.2061 27.369 29.2729 27.2876 29.3422 27.2033L29.3717 27.1674ZM28.4738 4.47155C28.6803 4.62076 28.8814 4.78026 29.0826 4.94491C28.8814 4.78026 28.6803 4.6259 28.4738 4.47155Z" fill="#F7F9FF"/>
</svg>
