<svg width="84" height="84" fill="none" xmlns="http://www.w3.org/2000/svg"><path fill-rule="evenodd" clip-rule="evenodd" d="M42 79.8c20.262 0 36.688-16.923 36.688-37.8C78.688 21.124 62.262 4.2 42 4.2 21.738 4.2 5.312 21.124 5.312 42c0 20.877 16.426 37.8 36.688 37.8zm0 4.2c22.514 0 40.765-18.804 40.765-42S64.514 0 42 0 1.235 18.804 1.235 42 19.486 84 42 84z" fill="#F4C655"/><path d="M25.527 29.735h-4.855c-.058 1.498-2.107 4.049-5.17 4.049v4.12c2.632 0 4.343-1.006 4.856-1.82h.22v18.18h4.949V29.736zM40.094 54.6c5.355 0 9.232-2.958 9.255-6.935-.023-3.066-2.305-5.57-5.169-6.06v-.168c2.491-.527 4.26-2.755 4.284-5.438-.023-3.797-3.562-6.6-8.37-6.6-4.843 0-8.383 2.803-8.36 6.6-.023 2.683 1.747 4.91 4.285 5.438v.168c-2.91.49-5.192 2.994-5.169 6.06-.023 3.977 3.842 6.935 9.244 6.935zm0-3.809c-2.41 0-4.029-1.449-4.005-3.533-.024-2.12 1.676-3.653 4.005-3.653 2.293 0 3.981 1.533 4.005 3.653-.024 2.084-1.63 3.533-4.005 3.533zm0-10.959c-2.026 0-3.47-1.353-3.446-3.294-.024-1.904 1.397-3.234 3.446-3.234 2.014 0 3.422 1.33 3.446 3.234-.024 1.94-1.456 3.294-3.446 3.294zm28.403.192H62.77v-5.69h-3.9v5.69h-5.728v3.952h5.728v5.69h3.9v-5.69h5.728v-3.952z" fill="#F4C655"/></svg>