<svg width="32" height="28" fill="none" xmlns="http://www.w3.org/2000/svg"><mask id="a" fill="#fff"><path d="M26.063 15l-1.68 1.532 3.066 2.801H17.75c-1.26 0-2.468.457-3.359 1.27-.89.812-1.391 1.914-1.391 3.064 0 1.149.5 2.251 1.391 3.064.891.813 2.1 1.269 3.359 1.269h2.375v-2.167H17.75a2.5 2.5 0 01-1.68-.634 2.075 2.075 0 01-.695-1.532c0-.575.25-1.126.696-1.532a2.496 2.496 0 011.679-.635h9.699l-3.067 2.803 1.68 1.53L32 20.417 26.062 15z"/></mask><path d="M26.063 15l-1.68 1.532 3.066 2.801H17.75c-1.26 0-2.468.457-3.359 1.27-.89.812-1.391 1.914-1.391 3.064 0 1.149.5 2.251 1.391 3.064.891.813 2.1 1.269 3.359 1.269h2.375v-2.167H17.75a2.5 2.5 0 01-1.68-.634 2.075 2.075 0 01-.695-1.532c0-.575.25-1.126.696-1.532a2.496 2.496 0 011.679-.635h9.699l-3.067 2.803 1.68 1.53L32 20.417 26.062 15z" fill="#8EB0FF"/><path d="M26.063 15L42.912-3.47l-16.85-15.37L9.213-3.47 26.063 15zm-1.68 1.532L7.534-1.938l-20.227 18.453 20.21 18.471 16.866-18.454zm3.066 2.801v25h64.413L44.314.88 27.449 19.333zM13 23.667h-25 25zM20.125 28v25h25V28h-25zm0-2.167h25v-25h-25v25zm-4.75-2.166h25-25zM27.449 21.5l16.865 18.454L91.86-3.5H27.449v25zm-3.067 2.803L7.516 5.849l-20.23 18.49L7.55 42.789l16.83-18.486zm1.68 1.53L9.233 44.32 26.08 59.658l16.832-15.355-16.85-18.47zM32 20.417l16.849 18.469 20.245-18.47L48.85 1.949 32 20.417zM9.213-3.47L7.534-1.937 41.232 35l1.68-1.532L9.213-3.469zM7.518 34.986l3.065 2.802L44.314.879l-3.065-2.801L7.518 34.986zm19.93-40.653H17.75v50h9.699v-50zm-9.698 0c-7.187 0-14.49 2.584-20.208 7.8L31.24 39.072a20.011 20.011 0 01-13.49 5.261v-50zm-20.208 7.8C-8.252 7.42-12 15.108-12 23.667h50c0 6.26-2.747 11.744-6.76 15.405L-2.458 2.133zM-12 23.667c0 8.559 3.748 16.247 9.542 21.533L31.24 8.262A20.853 20.853 0 0138 23.667h-50zM-2.458 45.2C3.26 50.416 10.562 53 17.75 53V3c4.668 0 9.554 1.67 13.49 5.262L-2.458 45.2zM17.75 53h2.375V3H17.75v50zm27.375-25v-2.167h-50V28h50zm-25-27.167H17.75v50h2.375v-50zm-2.375 0A22.506 22.506 0 0132.92 6.73L-.778 43.668c5.272 4.81 11.97 7.165 18.528 7.165v-50zM32.92 6.73a22.927 22.927 0 017.455 16.937h-50c0 7.984 3.497 15.12 8.847 20L32.92 6.73zm7.455 16.937c0 6.835-2.997 12.87-7.455 16.937L-.778 3.665c-5.35 4.88-8.847 12.017-8.847 20.002h50zM32.92 40.604A22.506 22.506 0 0117.75 46.5v-50C11.193-3.5 4.494-1.145-.778 3.665L32.92 40.604zM17.75 46.5h9.699v-50H17.75v50zM10.583 3.046L7.516 5.85l33.731 36.908 3.067-2.803L10.583 3.046zM7.55 42.79l1.681 1.53 33.66-36.972-1.68-1.53L7.551 42.79zm35.36 1.514l5.938-5.417L15.151 1.948 9.213 7.364l33.699 36.939zm5.94-42.356L42.912-3.47 9.213 33.469l5.938 5.417L48.849 1.948z" fill="#F4C655" mask="url(#a)"/><mask id="b" fill="#fff"><path d="M9.143 20.7H2.286L2.282 3.342l13.067 9.104a1.139 1.139 0 001.302 0l13.063-9.101V13.8H32V2.3a2.31 2.31 0 00-.67-1.626A2.281 2.281 0 0029.714 0H2.286C1.68 0 1.099.242.67.672A2.307 2.307 0 000 2.296V20.7c0 .61.242 1.194.67 1.626.429.43 1.01.673 1.616.674h6.857v-2.3zM27.198 2.3L16 10.101 4.802 2.3h22.396z"/></mask><path d="M9.143 20.7H2.286L2.282 3.342l13.067 9.104a1.139 1.139 0 001.302 0l13.063-9.101V13.8H32V2.3a2.31 2.31 0 00-.67-1.626A2.281 2.281 0 0029.714 0H2.286C1.68 0 1.099.242.67.672A2.307 2.307 0 000 2.296V20.7c0 .61.242 1.194.67 1.626.429.43 1.01.673 1.616.674h6.857v-2.3zM27.198 2.3L16 10.101 4.802 2.3h22.396z" fill="#8EB0FF"/><path d="M9.143 20.7h25v-25h-25v25zm-6.857 0l-25 .006.005 24.994H2.286v-25zM2.282 3.342l14.29-20.513-39.3-27.378.01 47.897 25-.006zm13.067 9.104L1.06 32.959l.01.006 14.28-20.52zm.651.204v25-25zm.65-.204l14.282 20.52.009-.007-14.29-20.513zm13.064-9.101h25V-44.54l-39.29 27.372 14.29 20.513zm0 10.455h-25v25h25v-25zm2.286 0v25h25v-25H32zm0-11.5h25v-.031L32 2.3zM29.714 0l.032-25h-.032V0zM2.286 0v25V0zM0 2.296l-25-.043v.043H0zM0 20.7h-25v.032L0 20.7zM2.286 23l-.033 25h.033V23zm6.857 0v25h25V23h-25zM27.198 2.3l14.29 20.513L106.822-22.7H27.198v25zM16 10.101L1.71 30.614 16 40.57l14.29-9.956L16 10.101zM4.802 2.3v-25h-79.623l65.332 45.513L4.801 2.3zm4.34-6.6H2.287v50h6.857v-50zm18.144 24.994l-.004-17.357-50 .011.004 17.358 50-.012zm-39.294 3.162l13.067 9.103L29.64-8.068 16.573-17.17l-28.58 41.027zm13.076 9.11A26.139 26.139 0 0016 37.65v-50a23.86 23.86 0 0113.63 4.276L1.068 32.966zM16 37.65c5.35 0 10.558-1.641 14.932-4.685L2.37-8.074A23.86 23.86 0 0116-12.35v50zm14.941-4.691l13.064-9.101-28.581-41.026-13.064 9.1L30.941 32.96zM4.714 3.345V13.8h50V3.345h-50zm25 35.455H32v-50h-2.286v50zM57 13.8V2.3H7v11.5h50zm0-11.531a27.31 27.31 0 00-7.938-19.217L13.597 18.297A22.69 22.69 0 017 2.331l50-.062zm-7.938-19.217A27.282 27.282 0 0029.746-25l-.063 50a22.719 22.719 0 01-16.086-6.703l35.465-35.245zM29.714-25H2.286v50h27.428v-50zM2.286-25a27.279 27.279 0 00-19.332 8.034L18.388 18.31A22.721 22.721 0 012.286 25v-50zm-19.332 8.034A27.307 27.307 0 00-25 2.253l50 .086a22.693 22.693 0 01-6.612 15.971l-35.434-35.276zM-25 2.296V20.7h50V2.296h-50zm0 18.436a27.31 27.31 0 007.938 19.216L18.403 4.703A22.69 22.69 0 0125 20.668l-50 .064zm7.938 19.216A27.282 27.282 0 002.253 48l.065-50a22.718 22.718 0 0116.085 6.703l-35.465 35.245zM2.286 48h6.857V-2H2.286v50zm31.857-25v-2.3h-50V23h50zM12.908-18.213L1.71-10.412l28.58 41.026 11.199-7.8-28.58-41.027zm17.382 7.801l-11.198-7.801-28.58 41.026L1.71 30.614l28.58-41.026zM4.802 27.3h22.396v-50H4.802v50z" fill="#F4C655" mask="url(#b)"/></svg>