<svg width="26" height="26" fill="none" xmlns="http://www.w3.org/2000/svg"><path d="M26 21.951A4.049 4.049 0 0121.951 26H4.017A4.016 4.016 0 010 21.984V3.871A3.871 3.871 0 013.872 0h18.256A3.871 3.871 0 0126 3.871v18.08z" fill="#EBAB1F"/><path d="M2.453 10.12v6.607l-1.179.264v-6.607l1.18-.265zm3.122.851c-.727.164-1.174.983-1.174.983v-.616l-1.144.25v3.942a1.25 1.25 0 011.14.123v-1.925c.008-.922.272-1.46.824-1.584.485-.11.667.252.66.81v3.01l1.123-.253.007-3.001c.01-1.47-.583-1.93-1.436-1.739zm1.7-.286l.644-.145v-.924l1.139-.254v.923l.81-.183-.01 1-.812.182-.006 2.502c.005.306.059.495.401.418.134-.03.241-.064.363-.11l.003.938a2.91 2.91 0 01-.69.242c-.65.15-1.213-.273-1.213-1.139l.004-2.595-.644.144.012-.999zm3.965 1.892c0 .105-.002.192.015.293.085.507.334.901.847.786.47-.105.627-.418.717-.763l1.193-.268c-.125.764-.538 1.728-1.84 2.02-1.168.261-1.874-.413-2.068-1.565-.212-1.263.117-3.145 1.848-3.533 1.277-.286 1.875.47 2.039 1.446.065.388.061.675.039.958l-2.79.626zm1.658-1.242a1.05 1.05 0 00-.02-.216c-.069-.414-.297-.736-.801-.623-.521.116-.778.557-.826 1.208l1.647-.369zm3.949-1.452c-.793.188-1.175.74-1.18 1.824l-.01 2.06-1.138.255V9.057l1.098-.247c.014.122.04.49.038.893.185-.636.439-.962 1.191-1.13v1.309zm4.04 2.673l-.006.001-1.142.258a2.24 2.24 0 01-.192-.529c-.161.343-.383.738-1.186.918-.853.192-1.338-.39-1.444-.95-.25-1.323.7-1.966 1.671-2.214.35-.089.644-.142.976-.225l-.017-.298c-.007-.362-.091-.804-.702-.666-.543.122-.572.466-.62.717l-1.163.26c.015-.798.363-1.57 1.71-1.872 1.054-.236 1.93.076 1.922 1.372v2.354s.028.397.073.589c.046.194.12.284.12.284zm-1.341-1.937a6.239 6.239 0 00-.744.216c-.615.252-.822.539-.745.943.051.275.25.451.619.369.786-.177.854-.92.868-1.45l.002-.078zm5.445-.632c-.064.953-.509 1.83-1.788 2.117-1.096.246-1.807-.332-2.023-1.472-.26-1.379.134-3.26 1.74-3.62 1.404-.315 1.962.7 2.019 1.32l-1.104.248c-.078-.366-.258-.718-.769-.604-.803.181-.87 1.576-.726 2.339.125.662.424.901.833.81.377-.085.593-.373.68-.881l1.138-.257zM6.31 18.425L4.7 17.33v2.689a.149.149 0 11-.298 0L4.4 16.723a.692.692 0 00-1.382 0l.001 5.742c0 1.03.84 1.871 1.87 1.871h.124a1.834 1.834 0 001.833-1.841l.001-3.03c0-.4-.22-.798-.535-1.04zm-4.672-.856a.53.53 0 00.247 1.033l.805-.194v-1.092l-1.052.253zm0 1.407a.53.53 0 00.247 1.032l.805-.193v-1.092l-1.052.253zm-.393 2.047a.53.53 0 00.64.392l.805-.193V20.13l-1.052.253a.532.532 0 00-.393.64z" fill="#000"/></svg>