<svg width="28" height="28" fill="none" xmlns="http://www.w3.org/2000/svg"><path d="M26.124 16.194l.389-.35c.496-.446.718-.968.705-1.487v-.019c0-.91-.325-1.552-.888-1.99-.59-.459-1.534-.76-2.875-.76h-.001l-1.356.003h-.001c-.906 0-1.708-.012-2.488-.059l-1.11-.066.439-1.022c.932-2.171 1.454-4.434 1.526-6.587-.002-1.453-.395-2.175-.798-2.547-.417-.384-.99-.529-1.613-.529-.993 0-1.59.656-2.103 1.477l10.174 13.935zm0 0l.175.492m-.175-.492l.175.492m0 0c.21.591.243 1.08.162 1.478-.08.391-.279.745-.625 1.06l-.385.35.174.49c.21.589.244 1.077.163 1.474-.08.39-.279.743-.625 1.058l-.395.36.193.5.119.299c.057.141.064.17.068.189a2.069 2.069 0 01.024.255l.017.257c-.004.865-.314 1.533-.812 1.99-.508.468-1.275.773-2.273.773h-4.05c-2.126 0-4.674-.198-6.991-.545l-.287-.047h0a64.167 64.167 0 01-.946-.162l-.646-.115-.226.617a.386.386 0 01-.362.252H1.168a.388.388 0 01-.387-.385V10.623c0-.209.174-.384.387-.384h7.428a.39.39 0 01.32.167l.46.658.645-.478c1.1-.816 1.995-1.91 2.796-2.89l.043-.053.001-.002.284-.345.013-.015.012-.016c.273-.37.548-.79.823-1.263h0m12.306 10.684L13.993 6.002m0 0c.191-.331.578-1.091.948-1.82m-.948 1.82l.948-1.82M25.532 15.62h0c-.184.114-.295.186-.37.267-.055.058-.065.091-.065.14 0 .106.023.177.052.235.035.07.082.131.17.238l.01.013c.075.091.202.246.294.451.105.232.147.478.147.752 0 .332-.117.618-.34.853-.17.18-.397.32-.574.43h0c-.184.112-.295.185-.371.266-.055.058-.065.09-.065.14 0 .106.024.177.053.235.035.07.082.13.168.236l.008.01a2 2 0 01.3.454c.105.233.148.48.148.754 0 .332-.118.619-.342.854-.17.18-.398.32-.576.428-.184.113-.294.186-.37.267-.055.058-.065.09-.065.14 0 .106.024.177.053.235.035.07.081.13.167.236l.008.01c.077.091.206.247.3.454.106.233.148.48.148.754 0 .58-.198 1.131-.686 1.512-.452.352-1.038.466-1.63.466h0l-4.152-.003h-.028l-.05-.002c-2.687-.1-5.546-.206-8.282-.825l-.609-.138V12.225l.352-.231a17.06 17.06 0 004.427-4.237l.006-.009h0c.827-1.103 1.411-2.294 1.957-3.41l.009-.018c.273-.56.575-1.179.874-1.657a3.75 3.75 0 01.517-.677c.173-.171.49-.43.927-.43.276 0 .86.01 1.255.55.314.43.385 1.051.385 1.763 0 2.757-1.305 6.06-2.056 7.56-.148.296-.088.393-.068.425h0v.002c.054.087.257.289 1.301.399.988.104 2.44.105 4.585.105 1.165 0 1.967.213 2.464.67.53.488.529 1.085.528 1.295v.013l-.914 1.281zm0 0c.177-.108.404-.249.574-.428m-.574.428l.574-.428M14.941 4.182c.456-.895.853-1.673 1.01-1.923l-1.01 1.923zm11.165 11.009c.222-.235.34-.52.34-.853l-.34.853zM7.43 26.446h.781V11.01H1.552v15.436H7.43z" stroke="#F4C655" stroke-width="1.562"/></svg>