<svg width="101" height="32" fill="none" xmlns="http://www.w3.org/2000/svg"><path d="M78.414 25.123H74.21c-.154-.772-.319-1.527-.449-2.29-.054-.316-.15-.438-.489-.434-1.685.023-3.37.017-5.055.003-.256-.002-.357.086-.435.33a59.46 59.46 0 01-.746 2.16c-.035.097-.152.23-.232.231-1.519.014-3.038.01-4.6.01.284-.717.554-1.401.828-2.084L68.91 8.4c.424-1.058 1.06-1.5 2.155-1.501h3.69c.121.595.244 1.182.362 1.77.963 4.826 1.925 9.653 2.891 14.479.124.618.27 1.231.406 1.847v.13zm-5.5-6.476l-1.332-6.672-.055-.011-2.318 6.683h3.704zM60.105 6.574c.555.107 1.114.196 1.663.328.5.121.991.29 1.524.448l-.787 3.845c-.702-.215-1.374-.463-2.064-.623-.945-.217-1.912-.3-2.857-.025a2.857 2.857 0 00-1.075.597c-.518.464-.525 1.133-.03 1.62.342.336.746.612 1.15.866.92.578 1.886 1.08 2.78 1.698 1.052.727 1.82 1.727 1.98 3.078.286 2.39-.56 4.273-2.481 5.605-1.208.837-2.575 1.211-4 1.35a13.715 13.715 0 01-5.839-.692c-.127-.044-.251-.098-.376-.152-.037-.015-.069-.043-.126-.08l.814-3.983c.324.148.628.296.939.427 1.485.625 3.018.911 4.607.6a3.2 3.2 0 001.186-.517c.76-.533.833-1.534.14-2.16-.454-.411-1.002-.715-1.52-1.045-.81-.516-1.67-.955-2.437-1.532-.983-.74-1.694-1.726-1.829-3.037-.202-1.963.495-3.557 1.937-4.795 1.254-1.078 2.743-1.556 4.33-1.757.088-.01.174-.042.26-.064h2.111zm-16.343.339c-.236.593-.46 1.16-.686 1.724-2.163 5.393-4.329 10.784-6.483 16.18-.103.257-.228.325-.478.322-1.365-.011-2.73-.016-4.095.004-.29.004-.384-.102-.45-.374-1.158-4.713-2.334-9.421-3.479-14.138-.21-.865-.63-1.456-1.418-1.819-1.263-.581-2.575-.99-3.912-1.322-.06-.014-.118-.03-.174-.045.007-.547.007-.547.505-.547h7.167c1.133 0 1.95.688 2.165 1.86.607 3.319 1.2 6.64 1.8 9.96.026.145.055.29.095.494.062-.122.105-.19.134-.265 1.483-3.922 2.968-7.844 4.444-11.77.08-.214.18-.287.401-.285 1.386.012 2.772.006 4.158.006.09 0 .18.009.306.015zm-1.809 18.221l3.73-18.217h4.526c-.188.925-.372 1.831-.558 2.737-1.025 5.012-2.055 10.023-3.069 15.038-.07.348-.189.459-.535.452-1.24-.025-2.481-.01-3.722-.01h-.372z" fill="#fff"/></svg>